<svg xmlns="http://www.w3.org/2000/svg" xmlns:xlink="http://www.w3.org/1999/xlink" width="1000" zoomAndPan="magnify" viewBox="0 0 750 749.999995" height="1000" preserveAspectRatio="xMidYMid meet" version="1.0"><defs><g/><clipPath id="id1"><path d="M 119.09375 320 L 388 320 L 388 556.914062 L 119.09375 556.914062 Z M 119.09375 320 " clip-rule="nonzero"/></clipPath><clipPath id="id2"><path d="M 387 197 L 654.59375 197 L 654.59375 433 L 387 433 Z M 387 197 " clip-rule="nonzero"/></clipPath></defs><rect x="-75" width="900" fill="#001e47" y="-74.999999" height="899.999994" fill-opacity="0"/><rect x="-75" width="900" fill="#ffffff" y="-74.999999" height="899.999994" fill-opacity="0"/><rect x="-75" width="900" fill="#001e47" y="-74.999999" height="899.999994" fill-opacity="0"/><g clip-path="url(#id1)"><path fill="#0652e9" d="M 299.410156 487.945312 L 299.410156 520.527344 L 151.796875 451.972656 L 151.796875 425.535156 L 299.410156 356.980469 L 299.410156 389.570312 L 187.773438 438.445312 L 187.773438 439.058594 Z M 387.074219 320.769531 L 140.21875 320.769531 C 128.566406 320.769531 119.117188 330.214844 119.117188 341.871094 L 119.117188 535.640625 C 119.117188 547.289062 128.566406 556.734375 140.21875 556.734375 L 318.546875 556.734375 L 387.074219 320.769531 " fill-opacity="1" fill-rule="nonzero"/></g><g clip-path="url(#id2)"><path fill="#ffde59" d="M 621.949219 329.15625 L 474.34375 396.785156 L 474.34375 364.195312 L 588.433594 315.320312 L 588.433594 314.703125 L 474.34375 265.820312 L 474.34375 233.238281 L 621.949219 300.871094 Z M 455.605469 197.03125 L 387.074219 432.992188 L 633.53125 432.992188 C 645.183594 432.992188 654.632812 423.546875 654.632812 411.894531 L 654.632812 218.125 C 654.632812 206.476562 645.183594 197.03125 633.53125 197.03125 L 455.605469 197.03125 " fill-opacity="1" fill-rule="nonzero"/></g><g fill="#ffffff" fill-opacity="1"><g transform="translate(109.039397, 297.434386)"><g><path d="M 71.402344 -87.429688 L 71.402344 -29.582031 L 28.414062 -87.429688 L 8.597656 -87.429688 L 8.597656 0 L 27.832031 0 L 27.832031 -57.996094 L 70.671875 0 L 90.488281 0 L 90.488281 -87.429688 Z M 71.402344 -87.429688 "/></g></g></g><g fill="#ffffff" fill-opacity="1"><g transform="translate(213.377154, 297.434386)"><g><path d="M 61.929688 -70.527344 L 61.929688 -87.429688 L 9.324219 -87.429688 L 9.324219 0 L 61.929688 0 L 61.929688 -16.902344 L 28.558594 -16.902344 L 28.558594 -35.261719 L 57.121094 -35.261719 L 57.121094 -52.167969 L 28.558594 -52.167969 L 28.558594 -70.527344 Z M 61.929688 -70.527344 "/></g></g></g><g fill="#ffde59" fill-opacity="1"><g transform="translate(286.372611, 297.434386)"><g><path d="M 79.269531 0 L 49.105469 -45.171875 L 77.667969 -87.429688 L 55.664062 -87.429688 L 38.761719 -60.910156 L 21.855469 -87.429688 L -0.144531 -87.429688 L 28.414062 -45.027344 L -1.894531 0 L 20.253906 0 L 38.761719 -29.289062 L 57.265625 0 Z M 79.269531 0 "/></g></g></g><g fill="#ffffff" fill-opacity="1"><g transform="translate(368.978934, 297.434386)"><g><path d="M 62.511719 -87.429688 L -0.730469 -87.429688 L -0.730469 -70.378906 L 21.421875 -70.378906 L 21.421875 0 L 40.507812 0 L 40.507812 -70.378906 L 62.511719 -70.378906 Z M 62.511719 -87.429688 "/></g></g></g><g fill="#ffffff" fill-opacity="1"><g transform="translate(435.847168, 297.434386)"><g/></g></g><g fill="#ffffff" fill-opacity="1"><g transform="translate(395.004496, 550.437464)"><g><path d="M 30.964844 -18.96875 L 30.964844 -97.273438 L 9.566406 -97.273438 L 9.566406 0 L 63.230469 0 L 63.230469 -18.96875 Z M 30.964844 -18.96875 "/></g></g></g><g fill="#ffffff" fill-opacity="1"><g transform="translate(464.25114, 550.437464)"><g><path d="M 69.066406 0 L 91.925781 0 L 56.90625 -97.273438 L 32.910156 -97.273438 L -2.109375 0 L 20.753906 0 L 26.75 -18.320312 L 63.066406 -18.320312 Z M 32.425781 -36.152344 L 44.910156 -74.738281 L 57.390625 -36.152344 Z M 32.425781 -36.152344 "/></g></g></g><g fill="#ffffff" fill-opacity="1"><g transform="translate(559.75627, 550.437464)"><g><path d="M 68.09375 -49.285156 C 75.386719 -53.175781 80.089844 -59.984375 80.089844 -70.199219 C 80.089844 -87.386719 67.121094 -97.273438 50.746094 -97.273438 L 9.566406 -97.273438 L 9.566406 0 L 54.472656 0 C 70.6875 0 83.332031 -9.402344 83.332031 -26.589844 C 83.332031 -38.421875 77.171875 -45.71875 68.09375 -49.285156 Z M 58.6875 -67.929688 C 58.6875 -62.257812 53.988281 -57.390625 48.152344 -57.390625 L 30.964844 -57.390625 L 30.964844 -78.304688 L 48.152344 -78.304688 C 53.988281 -78.304688 58.6875 -73.765625 58.6875 -67.929688 Z M 51.394531 -18.96875 L 30.964844 -18.96875 L 30.964844 -39.882812 L 51.394531 -39.882812 C 57.390625 -39.882812 61.929688 -35.019531 61.929688 -29.34375 C 61.929688 -23.507812 57.390625 -18.96875 51.394531 -18.96875 Z M 51.394531 -18.96875 "/></g></g></g></svg>